 <svg xmlns="http://www.w3.org/2000/svg" width="162" height="54" viewBox="0 0 162 54">
            <g fill="none" fill-rule="evenodd">
            <path fill="#2b2b2b" d="M11.4 52.819c-.41 0-.812-.006-1.22-.015a17.128 17.128 0 0 1-2.524-.22 7.943 7.943 0 0 1-2.236-.74 7.298 7.298 0 0 1-1.886-1.372 7.183 7.183 0 0 1-1.378-1.885 7.725 7.725 0 0 1-.733-2.237 16.758 16.758 0 0 1-.225-2.532c-.008-.284-.02-1.232-.02-1.232V11.4s.012-.934.02-1.208a16.7 16.7 0 0 1 .224-2.527 7.77 7.77 0 0 1 .734-2.244 7.254 7.254 0 0 1 1.37-1.887 7.513 7.513 0 0 1 1.893-1.38 7.861 7.861 0 0 1 2.232-.735 16.991 16.991 0 0 1 2.532-.221l1.218-.017H150.14l1.232.017c.841.01 1.68.084 2.51.22a8.017 8.017 0 0 1 2.255.74 7.552 7.552 0 0 1 3.26 3.266 7.78 7.78 0 0 1 .723 2.226c.14.843.218 1.694.234 2.548.004.382.004.793.004 1.202.01.506.01.988.01 1.474v28.253c0 .49 0 .97-.01 1.452 0 .439 0 .841-.005 1.255a17.187 17.187 0 0 1-.23 2.502 7.748 7.748 0 0 1-.73 2.255 7.398 7.398 0 0 1-1.37 1.87 7.307 7.307 0 0 1-1.89 1.38c-.709.36-1.468.61-2.252.743-.834.136-1.678.21-2.523.22-.396.01-.81.015-1.212.015l-1.463.002L11.4 52.82z"></path>
            <g fill="#FFF">
            <path d="M33.438 27.406a6.68 6.68 0 0 1 3.181-5.605 6.839 6.839 0 0 0-5.388-2.913c-2.267-.238-4.464 1.356-5.62 1.356-1.177 0-2.956-1.333-4.871-1.293a7.176 7.176 0 0 0-6.039 3.682c-2.61 4.52-.663 11.164 1.838 14.818 1.251 1.79 2.714 3.788 4.627 3.717 1.873-.078 2.572-1.194 4.833-1.194 2.239 0 2.895 1.194 4.847 1.149 2.01-.033 3.276-1.797 4.483-3.603.9-1.275 1.591-2.684 2.05-4.175a6.456 6.456 0 0 1-3.941-5.94zM29.75 16.485a6.578 6.578 0 0 0 1.505-4.713 6.693 6.693 0 0 0-4.33 2.24 6.26 6.26 0 0 0-1.544 4.539 5.534 5.534 0 0 0 4.37-2.066z"></path>
            <g>
            <path fill-rule="nonzero" d="M57.108 36.639h-6.39l-1.535 4.53h-2.706l6.052-16.764h2.812l6.053 16.765h-2.753l-1.533-4.531zm-5.728-2.091h5.065l-2.497-7.354h-.07l-2.498 7.354zM74.466 35.06c0 3.797-2.033 6.238-5.101 6.238a4.144 4.144 0 0 1-3.846-2.139h-.058v6.054h-2.509V28.947h2.429v2.033h.046a4.336 4.336 0 0 1 3.892-2.16c3.102 0 5.147 2.451 5.147 6.24zm-2.58 0c0-2.475-1.278-4.102-3.23-4.102-1.916 0-3.205 1.66-3.205 4.101 0 2.463 1.289 4.112 3.206 4.112 1.951 0 3.23-1.615 3.23-4.112zM87.918 35.06c0 3.797-2.033 6.238-5.1 6.238a4.144 4.144 0 0 1-3.846-2.139h-.058v6.054h-2.51V28.947h2.43v2.033h.045a4.336 4.336 0 0 1 3.892-2.16c3.102 0 5.147 2.451 5.147 6.24zm-2.579 0c0-2.475-1.278-4.102-3.23-4.102-1.916 0-3.206 1.66-3.206 4.101 0 2.463 1.29 4.112 3.206 4.112 1.952 0 3.23-1.615 3.23-4.112z"></path>
            <path d="M96.81 36.499c.185 1.662 1.8 2.754 4.007 2.754 2.115 0 3.636-1.092 3.636-2.59 0-1.302-.918-2.081-3.09-2.615l-2.173-.524c-3.078-.743-4.507-2.183-4.507-4.519 0-2.892 2.52-4.88 6.1-4.88 3.542 0 5.97 1.988 6.052 4.88h-2.532c-.152-1.673-1.535-2.683-3.556-2.683s-3.404 1.022-3.404 2.51c0 1.184.883 1.882 3.044 2.416l1.847.453c3.44.814 4.869 2.195 4.869 4.647 0 3.137-2.498 5.101-6.472 5.101-3.718 0-6.228-1.918-6.39-4.95h2.568zM112.517 26.055v2.892h2.325v1.987h-2.325v6.738c0 1.047.466 1.535 1.487 1.535a7.84 7.84 0 0 0 .826-.058v1.975a6.89 6.89 0 0 1-1.394.116c-2.474 0-3.44-.93-3.44-3.3v-7.006h-1.776v-1.987h1.777v-2.892h2.52z"></path>
            <path fill-rule="nonzero" d="M116.188 35.06c0-3.847 2.265-6.263 5.797-6.263 3.543 0 5.798 2.416 5.798 6.262 0 3.856-2.243 6.262-5.798 6.262s-5.797-2.406-5.797-6.262zm9.038 0c0-2.639-1.209-4.196-3.241-4.196-2.033 0-3.241 1.569-3.241 4.195 0 2.649 1.208 4.194 3.24 4.194 2.033 0 3.242-1.545 3.242-4.194z"></path>
            <path d="M129.851 28.947h2.393v2.08h.058a2.915 2.915 0 0 1 2.94-2.208c.29 0 .577.03.86.094v2.347a3.507 3.507 0 0 0-1.128-.152 2.528 2.528 0 0 0-2.614 2.812v7.25h-2.509V28.947z"></path>
            <path fill-rule="nonzero" d="M147.669 37.58c-.338 2.219-2.498 3.741-5.263 3.741-3.556 0-5.763-2.382-5.763-6.204 0-3.834 2.22-6.32 5.657-6.32 3.382 0 5.509 2.323 5.509 6.029v.86h-8.633v.151a3.183 3.183 0 0 0 3.288 3.462 2.765 2.765 0 0 0 2.823-1.72h2.382zm-8.481-3.648h6.11a2.94 2.94 0 0 0-2.998-3.102 3.094 3.094 0 0 0-3.112 3.102z"></path>
            </g>
            </g>
            <g fill="#FFF">
            <path fill-rule="nonzero" d="M51.065 11.787a3.564 3.564 0 0 1 3.79 4.002c0 2.574-1.39 4.053-3.79 4.053h-2.91v-8.055h2.91zm-1.658 6.916h1.519a2.532 2.532 0 0 0 2.656-2.897 2.54 2.54 0 0 0-2.656-2.88h-1.52v5.777zM56.269 16.8a2.88 2.88 0 1 1 5.733 0 2.88 2.88 0 1 1-5.733 0zm4.5 0c0-1.318-.592-2.088-1.631-2.088-1.043 0-1.63.77-1.63 2.088 0 1.328.587 2.093 1.63 2.093 1.039 0 1.63-.77 1.63-2.093z"></path>
            <path d="M69.624 19.842h-1.245l-1.256-4.477h-.095l-1.251 4.477h-1.233l-1.675-6.079h1.216l1.09 4.639h.09l1.249-4.639h1.15l1.25 4.639h.096l1.083-4.639h1.2zM72.702 13.763h1.155v.966h.09a1.82 1.82 0 0 1 1.814-1.083 1.977 1.977 0 0 1 2.104 2.26v3.936h-1.2v-3.634c0-.977-.424-1.463-1.312-1.463a1.394 1.394 0 0 0-1.451 1.54v3.557h-1.2v-6.079zM79.777 11.39h1.2v8.452h-1.2z"></path>
            <path fill-rule="nonzero" d="M82.644 16.8a2.88 2.88 0 1 1 5.734 0 2.88 2.88 0 1 1-5.734 0zm4.5 0c0-1.318-.592-2.088-1.631-2.088-1.043 0-1.63.77-1.63 2.088 0 1.328.587 2.093 1.63 2.093 1.039 0 1.63-.77 1.63-2.093zM89.641 18.123c0-1.094.815-1.725 2.261-1.815l1.647-.095v-.525c0-.642-.425-1.004-1.245-1.004-.67 0-1.133.246-1.267.676h-1.161c.122-1.045 1.105-1.714 2.484-1.714 1.524 0 2.383.758 2.383 2.042v4.154h-1.155v-.854h-.095a2.045 2.045 0 0 1-1.825.954 1.836 1.836 0 0 1-2.027-1.82zm3.908-.52v-.508l-1.485.095c-.837.056-1.216.34-1.216.877 0 .547.474.865 1.127.865a1.433 1.433 0 0 0 1.574-1.329zM96.32 16.8c0-1.921.987-3.138 2.523-3.138a2.003 2.003 0 0 1 1.865 1.067h.09V11.39h1.199v8.452h-1.15v-.96h-.095a2.11 2.11 0 0 1-1.909 1.06c-1.546 0-2.523-1.217-2.523-3.142zm1.24 0c0 1.29.607 2.065 1.624 2.065 1.01 0 1.636-.787 1.636-2.06 0-1.267-.632-2.065-1.636-2.065-1.01 0-1.625.781-1.625 2.06zM106.96 16.8a2.88 2.88 0 1 1 5.734 0 2.88 2.88 0 1 1-5.734 0zm4.5 0c0-1.318-.592-2.088-1.63-2.088-1.044 0-1.63.77-1.63 2.088 0 1.328.586 2.093 1.63 2.093 1.038 0 1.63-.77 1.63-2.093z"></path>
            <path d="M114.304 13.763h1.155v.966h.09a1.82 1.82 0 0 1 1.813-1.083 1.977 1.977 0 0 1 2.104 2.26v3.936h-1.2v-3.634c0-.977-.424-1.463-1.311-1.463a1.394 1.394 0 0 0-1.452 1.54v3.557h-1.2v-6.079zM126.245 12.25v1.54h1.318v1.011h-1.318v3.126c0 .637.263.916.86.916.153 0 .306-.01.458-.028v1a3.936 3.936 0 0 1-.653.06c-1.334 0-1.866-.469-1.866-1.64V14.8h-.965v-1.01h.965V12.25h1.201zM129.201 11.39h1.19v3.35h.094a1.87 1.87 0 0 1 1.854-1.09 2.003 2.003 0 0 1 2.093 2.267v3.925h-1.2v-3.629c0-.97-.453-1.463-1.3-1.463a1.42 1.42 0 0 0-1.531 1.542v3.55h-1.2V11.39z"></path>
            <path fill-rule="nonzero" d="M141.428 18.2a2.468 2.468 0 0 1-2.634 1.76 2.761 2.761 0 0 1-2.809-3.138 2.804 2.804 0 0 1 2.803-3.176c1.692 0 2.712 1.155 2.712 3.064v.419h-4.292v.067a1.607 1.607 0 0 0 1.619 1.742c.587.07 1.158-.221 1.446-.737h1.155zm-4.22-1.958h3.07a1.467 1.467 0 0 0-1.496-1.575 1.555 1.555 0 0 0-1.574 1.575z"></path>
            </g>
            </g>
            </svg>